<mxfile host="app.diagrams.net" agent="Mozilla/5.0 (Windows NT 10.0; Win64; x64) AppleWebKit/537.36 (KHTML, like Gecko) Chrome/134.0.0.0 Safari/537.36 Edg/134.0.0.0" version="26.1.3">
  <diagram name="Página-1" id="D3tnb2ox6H-AP5U4vuEf">
    <mxGraphModel dx="1426" dy="1950" grid="1" gridSize="10" guides="1" tooltips="1" connect="1" arrows="1" fold="1" page="1" pageScale="1" pageWidth="827" pageHeight="1169" math="0" shadow="0">
      <root>
        <mxCell id="0" />
        <mxCell id="1" parent="0" />
        <mxCell id="rVzyKmD2K89AZ_dwAiuH-1" value="comprar produto" style="ellipse;whiteSpace=wrap;html=1;fillColor=#99FFFF;" vertex="1" parent="1">
          <mxGeometry x="270" y="120" width="100" height="70" as="geometry" />
        </mxCell>
        <mxCell id="rVzyKmD2K89AZ_dwAiuH-2" value="cadastrar produtos" style="ellipse;whiteSpace=wrap;html=1;fillColor=#99FFFF;" vertex="1" parent="1">
          <mxGeometry x="635" y="490" width="100" height="70" as="geometry" />
        </mxCell>
        <mxCell id="rVzyKmD2K89AZ_dwAiuH-4" value="repor estoque da loja" style="ellipse;whiteSpace=wrap;html=1;fillColor=#99FFFF;" vertex="1" parent="1">
          <mxGeometry x="550" y="-40" width="100" height="70" as="geometry" />
        </mxCell>
        <mxCell id="rVzyKmD2K89AZ_dwAiuH-5" value="enviar notificações para funcionários" style="ellipse;whiteSpace=wrap;html=1;fillColor=#99FFFF;" vertex="1" parent="1">
          <mxGeometry x="620" y="230" width="100" height="70" as="geometry" />
        </mxCell>
        <mxCell id="rVzyKmD2K89AZ_dwAiuH-6" value="analisar nível do estoque" style="ellipse;whiteSpace=wrap;html=1;fillColor=#99FFFF;" vertex="1" parent="1">
          <mxGeometry x="570" y="150" width="100" height="70" as="geometry" />
        </mxCell>
        <mxCell id="rVzyKmD2K89AZ_dwAiuH-7" value="analisar validade de produtos" style="ellipse;whiteSpace=wrap;html=1;fillColor=#99FFFF;" vertex="1" parent="1">
          <mxGeometry x="800" y="30" width="100" height="70" as="geometry" />
        </mxCell>
        <mxCell id="rVzyKmD2K89AZ_dwAiuH-8" value="informar dados do cadastro" style="ellipse;whiteSpace=wrap;html=1;fillColor=#99FFFF;" vertex="1" parent="1">
          <mxGeometry x="314" y="40" width="100" height="70" as="geometry" />
        </mxCell>
        <mxCell id="rVzyKmD2K89AZ_dwAiuH-9" value="repor estoque" style="ellipse;whiteSpace=wrap;html=1;fillColor=#99FFFF;" vertex="1" parent="1">
          <mxGeometry x="580" y="415" width="100" height="70" as="geometry" />
        </mxCell>
        <mxCell id="rVzyKmD2K89AZ_dwAiuH-10" value="armazenar dados de cadastro de clientes" style="ellipse;whiteSpace=wrap;html=1;fillColor=#99FFFF;" vertex="1" parent="1">
          <mxGeometry x="840" y="140" width="100" height="70" as="geometry" />
        </mxCell>
        <mxCell id="rVzyKmD2K89AZ_dwAiuH-11" value="&amp;nbsp;verificar receita médica" style="ellipse;whiteSpace=wrap;html=1;fillColor=#99FFFF;" vertex="1" parent="1">
          <mxGeometry x="360" y="465" width="100" height="70" as="geometry" />
        </mxCell>
        <mxCell id="rVzyKmD2K89AZ_dwAiuH-12" value="vender produtos" style="ellipse;whiteSpace=wrap;html=1;fillColor=#99FFFF;" vertex="1" parent="1">
          <mxGeometry x="460" y="405" width="100" height="70" as="geometry" />
        </mxCell>
        <mxCell id="rVzyKmD2K89AZ_dwAiuH-13" value="cadastrar clientes" style="ellipse;whiteSpace=wrap;html=1;fillColor=#99FFFF;" vertex="1" parent="1">
          <mxGeometry x="620" y="570" width="100" height="70" as="geometry" />
        </mxCell>
        <mxCell id="rVzyKmD2K89AZ_dwAiuH-14" value="repor produtos em prateleiras" style="ellipse;whiteSpace=wrap;html=1;fillColor=#99FFFF;" vertex="1" parent="1">
          <mxGeometry x="310" y="530" width="100" height="70" as="geometry" />
        </mxCell>
        <mxCell id="rVzyKmD2K89AZ_dwAiuH-15" value="retirada de produtos" style="ellipse;whiteSpace=wrap;html=1;fillColor=#99FFFF;" vertex="1" parent="1">
          <mxGeometry x="320" y="-40" width="100" height="70" as="geometry" />
        </mxCell>
        <mxCell id="rVzyKmD2K89AZ_dwAiuH-17" value="" style="endArrow=classic;html=1;rounded=0;exitX=0.5;exitY=0.5;exitDx=0;exitDy=0;exitPerimeter=0;entryX=0;entryY=0.5;entryDx=0;entryDy=0;" edge="1" parent="1" source="rVzyKmD2K89AZ_dwAiuH-32" target="rVzyKmD2K89AZ_dwAiuH-13">
          <mxGeometry width="50" height="50" relative="1" as="geometry">
            <mxPoint x="700" y="630" as="sourcePoint" />
            <mxPoint x="640" y="590" as="targetPoint" />
          </mxGeometry>
        </mxCell>
        <mxCell id="rVzyKmD2K89AZ_dwAiuH-18" value="" style="endArrow=classic;html=1;rounded=0;" edge="1" parent="1" source="rVzyKmD2K89AZ_dwAiuH-34" target="rVzyKmD2K89AZ_dwAiuH-5">
          <mxGeometry width="50" height="50" relative="1" as="geometry">
            <mxPoint x="650" y="290" as="sourcePoint" />
            <mxPoint x="700" y="240" as="targetPoint" />
          </mxGeometry>
        </mxCell>
        <mxCell id="rVzyKmD2K89AZ_dwAiuH-20" value="" style="endArrow=classic;html=1;rounded=0;exitX=0.5;exitY=0.5;exitDx=0;exitDy=0;exitPerimeter=0;entryX=1;entryY=0.5;entryDx=0;entryDy=0;" edge="1" parent="1" source="rVzyKmD2K89AZ_dwAiuH-34" target="rVzyKmD2K89AZ_dwAiuH-6">
          <mxGeometry width="50" height="50" relative="1" as="geometry">
            <mxPoint x="630" y="130" as="sourcePoint" />
            <mxPoint x="680" y="80" as="targetPoint" />
          </mxGeometry>
        </mxCell>
        <mxCell id="rVzyKmD2K89AZ_dwAiuH-21" value="" style="endArrow=classic;html=1;rounded=0;exitX=0.5;exitY=0;exitDx=0;exitDy=0;exitPerimeter=0;" edge="1" parent="1" source="rVzyKmD2K89AZ_dwAiuH-32" target="rVzyKmD2K89AZ_dwAiuH-12">
          <mxGeometry width="50" height="50" relative="1" as="geometry">
            <mxPoint x="345" y="430" as="sourcePoint" />
            <mxPoint x="520" y="475" as="targetPoint" />
          </mxGeometry>
        </mxCell>
        <mxCell id="rVzyKmD2K89AZ_dwAiuH-22" value="" style="endArrow=classic;html=1;rounded=0;exitX=0.5;exitY=0.5;exitDx=0;exitDy=0;exitPerimeter=0;entryX=1;entryY=0.5;entryDx=0;entryDy=0;" edge="1" parent="1" source="rVzyKmD2K89AZ_dwAiuH-32" target="rVzyKmD2K89AZ_dwAiuH-14">
          <mxGeometry width="50" height="50" relative="1" as="geometry">
            <mxPoint x="370" y="410" as="sourcePoint" />
            <mxPoint x="420" y="360" as="targetPoint" />
          </mxGeometry>
        </mxCell>
        <mxCell id="rVzyKmD2K89AZ_dwAiuH-24" value="" style="endArrow=classic;html=1;rounded=0;entryX=0.95;entryY=0.757;entryDx=0;entryDy=0;entryPerimeter=0;" edge="1" parent="1" source="rVzyKmD2K89AZ_dwAiuH-32" target="rVzyKmD2K89AZ_dwAiuH-11">
          <mxGeometry width="50" height="50" relative="1" as="geometry">
            <mxPoint x="400" y="415" as="sourcePoint" />
            <mxPoint x="450" y="365" as="targetPoint" />
          </mxGeometry>
        </mxCell>
        <mxCell id="rVzyKmD2K89AZ_dwAiuH-26" value="" style="endArrow=classic;html=1;rounded=0;exitX=0.75;exitY=0.1;exitDx=0;exitDy=0;exitPerimeter=0;entryX=0;entryY=1;entryDx=0;entryDy=0;" edge="1" parent="1" source="rVzyKmD2K89AZ_dwAiuH-32" target="rVzyKmD2K89AZ_dwAiuH-9">
          <mxGeometry width="50" height="50" relative="1" as="geometry">
            <mxPoint x="570" y="415" as="sourcePoint" />
            <mxPoint x="620" y="365" as="targetPoint" />
          </mxGeometry>
        </mxCell>
        <mxCell id="rVzyKmD2K89AZ_dwAiuH-29" value="cliente" style="shape=umlActor;verticalLabelPosition=bottom;verticalAlign=top;html=1;outlineConnect=0;" vertex="1" parent="1">
          <mxGeometry x="150" y="260" width="30" height="60" as="geometry" />
        </mxCell>
        <mxCell id="rVzyKmD2K89AZ_dwAiuH-32" value="atendente" style="shape=umlActor;verticalLabelPosition=bottom;verticalAlign=top;html=1;outlineConnect=0;" vertex="1" parent="1">
          <mxGeometry x="510" y="535" width="30" height="60" as="geometry" />
        </mxCell>
        <mxCell id="rVzyKmD2K89AZ_dwAiuH-34" value="sistema" style="shape=umlActor;verticalLabelPosition=bottom;verticalAlign=top;html=1;outlineConnect=0;" vertex="1" parent="1">
          <mxGeometry x="735" y="130" width="30" height="60" as="geometry" />
        </mxCell>
        <mxCell id="rVzyKmD2K89AZ_dwAiuH-35" value="fornecedor" style="shape=umlActor;verticalLabelPosition=bottom;verticalAlign=top;html=1;outlineConnect=0;" vertex="1" parent="1">
          <mxGeometry x="690" y="-60" width="30" height="60" as="geometry" />
        </mxCell>
        <mxCell id="rVzyKmD2K89AZ_dwAiuH-37" value="" style="endArrow=classic;html=1;rounded=0;exitX=0.5;exitY=0.5;exitDx=0;exitDy=0;exitPerimeter=0;entryX=0;entryY=0.5;entryDx=0;entryDy=0;" edge="1" parent="1" source="rVzyKmD2K89AZ_dwAiuH-34" target="rVzyKmD2K89AZ_dwAiuH-10">
          <mxGeometry width="50" height="50" relative="1" as="geometry">
            <mxPoint x="820" y="220" as="sourcePoint" />
            <mxPoint x="870" y="170" as="targetPoint" />
          </mxGeometry>
        </mxCell>
        <mxCell id="rVzyKmD2K89AZ_dwAiuH-38" value="" style="endArrow=classic;html=1;rounded=0;exitX=0.5;exitY=0.5;exitDx=0;exitDy=0;exitPerimeter=0;entryX=1;entryY=0.5;entryDx=0;entryDy=0;" edge="1" parent="1" source="rVzyKmD2K89AZ_dwAiuH-35" target="rVzyKmD2K89AZ_dwAiuH-4">
          <mxGeometry width="50" height="50" relative="1" as="geometry">
            <mxPoint x="670" y="-150" as="sourcePoint" />
            <mxPoint x="720" y="-200" as="targetPoint" />
          </mxGeometry>
        </mxCell>
        <mxCell id="rVzyKmD2K89AZ_dwAiuH-39" value="" style="endArrow=classic;html=1;rounded=0;exitX=0.5;exitY=0.5;exitDx=0;exitDy=0;exitPerimeter=0;entryX=0;entryY=0.5;entryDx=0;entryDy=0;" edge="1" parent="1" source="rVzyKmD2K89AZ_dwAiuH-32" target="rVzyKmD2K89AZ_dwAiuH-2">
          <mxGeometry width="50" height="50" relative="1" as="geometry">
            <mxPoint x="715" y="485" as="sourcePoint" />
            <mxPoint x="765" y="435" as="targetPoint" />
          </mxGeometry>
        </mxCell>
        <mxCell id="rVzyKmD2K89AZ_dwAiuH-40" value="" style="endArrow=classic;html=1;rounded=0;exitX=0.75;exitY=0.1;exitDx=0;exitDy=0;exitPerimeter=0;entryX=0.11;entryY=0.771;entryDx=0;entryDy=0;entryPerimeter=0;" edge="1" parent="1" source="rVzyKmD2K89AZ_dwAiuH-34" target="rVzyKmD2K89AZ_dwAiuH-7">
          <mxGeometry width="50" height="50" relative="1" as="geometry">
            <mxPoint x="777" y="130" as="sourcePoint" />
            <mxPoint x="827" y="80" as="targetPoint" />
          </mxGeometry>
        </mxCell>
        <mxCell id="rVzyKmD2K89AZ_dwAiuH-42" value="" style="edgeStyle=elbowEdgeStyle;elbow=horizontal;endArrow=classic;html=1;curved=0;rounded=0;endSize=8;startSize=8;exitX=0.75;exitY=0.1;exitDx=0;exitDy=0;exitPerimeter=0;entryX=0;entryY=0.5;entryDx=0;entryDy=0;" edge="1" parent="1" source="rVzyKmD2K89AZ_dwAiuH-29" target="rVzyKmD2K89AZ_dwAiuH-1">
          <mxGeometry width="50" height="50" relative="1" as="geometry">
            <mxPoint x="390" y="260" as="sourcePoint" />
            <mxPoint x="280" y="230" as="targetPoint" />
          </mxGeometry>
        </mxCell>
        <mxCell id="rVzyKmD2K89AZ_dwAiuH-43" value="" style="edgeStyle=elbowEdgeStyle;elbow=horizontal;endArrow=classic;html=1;curved=0;rounded=0;endSize=8;startSize=8;exitX=0.5;exitY=0;exitDx=0;exitDy=0;exitPerimeter=0;entryX=0;entryY=0.5;entryDx=0;entryDy=0;" edge="1" parent="1" source="rVzyKmD2K89AZ_dwAiuH-29" target="rVzyKmD2K89AZ_dwAiuH-8">
          <mxGeometry width="50" height="50" relative="1" as="geometry">
            <mxPoint x="390" y="260" as="sourcePoint" />
            <mxPoint x="440" y="210" as="targetPoint" />
            <Array as="points">
              <mxPoint x="200" y="160" />
            </Array>
          </mxGeometry>
        </mxCell>
        <mxCell id="rVzyKmD2K89AZ_dwAiuH-44" value="" style="edgeStyle=elbowEdgeStyle;elbow=horizontal;endArrow=classic;html=1;curved=0;rounded=0;endSize=8;startSize=8;entryX=0.06;entryY=0.386;entryDx=0;entryDy=0;entryPerimeter=0;" edge="1" parent="1" source="rVzyKmD2K89AZ_dwAiuH-29" target="rVzyKmD2K89AZ_dwAiuH-15">
          <mxGeometry width="50" height="50" relative="1" as="geometry">
            <mxPoint x="390" y="260" as="sourcePoint" />
            <mxPoint x="440" y="210" as="targetPoint" />
            <Array as="points">
              <mxPoint x="160" y="160" />
            </Array>
          </mxGeometry>
        </mxCell>
        <mxCell id="rVzyKmD2K89AZ_dwAiuH-45" value="" style="endArrow=block;dashed=1;endFill=0;endSize=12;html=1;rounded=0;exitX=0.57;exitY=1.029;exitDx=0;exitDy=0;exitPerimeter=0;" edge="1" parent="1" source="rVzyKmD2K89AZ_dwAiuH-4" target="rVzyKmD2K89AZ_dwAiuH-6">
          <mxGeometry width="160" relative="1" as="geometry">
            <mxPoint x="330" y="250" as="sourcePoint" />
            <mxPoint x="490" y="250" as="targetPoint" />
          </mxGeometry>
        </mxCell>
      </root>
    </mxGraphModel>
  </diagram>
</mxfile>
